HIERARCHY
ROOT mixamorig:Hips
{
	OFFSET -0.000008 104.274872 1.554316
	CHANNELS 6 Xposition Yposition Zposition Xrotation Yrotation Zrotation
	JOINT mixamorig:Spine
	{
		OFFSET -0.000005 10.181595 0.131519
		CHANNELS 6 Xposition Yposition Zposition Xrotation Yrotation Zrotation
		JOINT mixamorig:Spine1
		{
			OFFSET -0.000000 9.893959 -1.470707
			CHANNELS 6 Xposition Yposition Zposition Xrotation Yrotation Zrotation
			JOINT mixamorig:Spine2
			{
				OFFSET -0.000000 9.220757 -1.370641
				CHANNELS 6 Xposition Yposition Zposition Xrotation Yrotation Zrotation
				JOINT mixamorig:Neck
				{
					OFFSET 0.000001 16.740417 -2.049036
					CHANNELS 6 Xposition Yposition Zposition Xrotation Yrotation Zrotation
					JOINT mixamorig:Head
					{
						OFFSET 0.000000 9.617874 1.685006
						CHANNELS 6 Xposition Yposition Zposition Xrotation Yrotation Zrotation
						JOINT mixamorig:HeadTop_End
						{
							OFFSET 0.000002 22.037354 7.501101
							CHANNELS 6 Xposition Yposition Zposition Xrotation Yrotation Zrotation
							End Site
							{
								OFFSET 0.000168 2310.654297 -282.823242
							}
						}
					}
				}
				JOINT mixamorig:RightShoulder
				{
					OFFSET -4.569970 11.014908 -2.160885
					CHANNELS 6 Xposition Yposition Zposition Xrotation Yrotation Zrotation
					JOINT mixamorig:RightArm
					{
						OFFSET -10.592851 -0.524811 -2.232101
						CHANNELS 6 Xposition Yposition Zposition Xrotation Yrotation Zrotation
						JOINT mixamorig:RightForeArm
						{
							OFFSET -27.841511 0.000031 -0.000004
							CHANNELS 6 Xposition Yposition Zposition Xrotation Yrotation Zrotation
							JOINT mixamorig:RightHand
							{
								OFFSET -28.328831 -0.000015 0.000015
								CHANNELS 6 Xposition Yposition Zposition Xrotation Yrotation Zrotation
								JOINT mixamorig:RightHandThumb1
								{
									OFFSET -2.464806 -1.573990 2.681852
									CHANNELS 6 Xposition Yposition Zposition Xrotation Yrotation Zrotation
									JOINT mixamorig:RightHandThumb2
									{
										OFFSET -3.215179 -1.872803 1.924282
										CHANNELS 6 Xposition Yposition Zposition Xrotation Yrotation Zrotation
										JOINT mixamorig:RightHandThumb3
										{
											OFFSET -2.654831 -1.527969 1.512609
											CHANNELS 6 Xposition Yposition Zposition Xrotation Yrotation Zrotation
											JOINT mixamorig:RightHandThumb4
											{
												OFFSET -2.018814 -1.152008 1.108052
												CHANNELS 6 Xposition Yposition Zposition Xrotation Yrotation Zrotation
												End Site
												{
													OFFSET -188.809540 -114.533607 132.431396
												}
											}
										}
									}
								}
								JOINT mixamorig:RightHandIndex1
								{
									OFFSET -9.108284 -0.517868 2.259835
									CHANNELS 6 Xposition Yposition Zposition Xrotation Yrotation Zrotation
									JOINT mixamorig:RightHandIndex2
									{
										OFFSET -3.699989 0.000000 0.001215
										CHANNELS 6 Xposition Yposition Zposition Xrotation Yrotation Zrotation
										JOINT mixamorig:RightHandIndex3
										{
											OFFSET -2.850006 0.000031 -0.000522
											CHANNELS 6 Xposition Yposition Zposition Xrotation Yrotation Zrotation
											JOINT mixamorig:RightHandIndex4
											{
												OFFSET -2.772186 -0.000015 -0.000020
												CHANNELS 6 Xposition Yposition Zposition Xrotation Yrotation Zrotation
												End Site
												{
													OFFSET -277.218445 0.000000 -0.050231
												}
											}
										}
									}
								}
								JOINT mixamorig:RightHandMiddle1
								{
									OFFSET -9.532516 -0.000031 -0.000023
									CHANNELS 6 Xposition Yposition Zposition Xrotation Yrotation Zrotation
									JOINT mixamorig:RightHandMiddle2
									{
										OFFSET -3.700005 -0.000015 0.003713
										CHANNELS 6 Xposition Yposition Zposition Xrotation Yrotation Zrotation
										JOINT mixamorig:RightHandMiddle3
										{
											OFFSET -2.949974 0.000015 -0.002054
											CHANNELS 6 Xposition Yposition Zposition Xrotation Yrotation Zrotation
											JOINT mixamorig:RightHandMiddle4
											{
												OFFSET -2.946640 0.000000 -0.000156
												CHANNELS 6 Xposition Yposition Zposition Xrotation Yrotation Zrotation
												End Site
												{
													OFFSET -294.664337 0.000000 -0.113670
												}
											}
										}
									}
								}
								JOINT mixamorig:RightHandRing1
								{
									OFFSET -9.103600 -0.043076 -1.865134
									CHANNELS 6 Xposition Yposition Zposition Xrotation Yrotation Zrotation
									JOINT mixamorig:RightHandRing2
									{
										OFFSET -3.379288 0.000000 -0.001055
										CHANNELS 6 Xposition Yposition Zposition Xrotation Yrotation Zrotation
										JOINT mixamorig:RightHandRing3
										{
											OFFSET -2.889687 -0.000015 0.000379
											CHANNELS 6 Xposition Yposition Zposition Xrotation Yrotation Zrotation
											JOINT mixamorig:RightHandRing4
											{
												OFFSET -2.638809 -0.000015 0.000941
												CHANNELS 6 Xposition Yposition Zposition Xrotation Yrotation Zrotation
												End Site
												{
													OFFSET -263.880371 0.000000 0.516020
												}
											}
										}
									}
								}
								JOINT mixamorig:RightHandPinky1
								{
									OFFSET -8.076683 -0.486710 -3.806280
									CHANNELS 6 Xposition Yposition Zposition Xrotation Yrotation Zrotation
									JOINT mixamorig:RightHandPinky2
									{
										OFFSET -3.600014 -0.000015 -0.003747
										CHANNELS 6 Xposition Yposition Zposition Xrotation Yrotation Zrotation
										JOINT mixamorig:RightHandPinky3
										{
											OFFSET -2.099983 0.000000 -0.005739
											CHANNELS 6 Xposition Yposition Zposition Xrotation Yrotation Zrotation
											JOINT mixamorig:RightHandPinky4
											{
												OFFSET -2.115768 -0.000031 -0.003680
												CHANNELS 6 Xposition Yposition Zposition Xrotation Yrotation Zrotation
												End Site
												{
													OFFSET -211.577087 0.000000 -0.350686
												}
											}
										}
									}
								}
							}
						}
					}
				}
				JOINT mixamorig:LeftShoulder
				{
					OFFSET 4.570447 11.014725 -2.160855
					CHANNELS 6 Xposition Yposition Zposition Xrotation Yrotation Zrotation
					JOINT mixamorig:LeftArm
					{
						OFFSET 10.592371 -0.524597 -2.232119
						CHANNELS 6 Xposition Yposition Zposition Xrotation Yrotation Zrotation
						JOINT mixamorig:LeftForeArm
						{
							OFFSET 27.841532 -0.000031 0.000026
							CHANNELS 6 Xposition Yposition Zposition Xrotation Yrotation Zrotation
							JOINT mixamorig:LeftHand
							{
								OFFSET 28.328846 -0.000061 0.000022
								CHANNELS 6 Xposition Yposition Zposition Xrotation Yrotation Zrotation
								JOINT mixamorig:LeftHandThumb1
								{
									OFFSET 2.466141 -1.576172 2.681732
									CHANNELS 6 Xposition Yposition Zposition Xrotation Yrotation Zrotation
									JOINT mixamorig:LeftHandThumb2
									{
										OFFSET 3.217812 -1.872070 1.916482
										CHANNELS 6 Xposition Yposition Zposition Xrotation Yrotation Zrotation
										JOINT mixamorig:LeftHandThumb3
										{
											OFFSET 2.656029 -1.528778 1.514513
											CHANNELS 6 Xposition Yposition Zposition Xrotation Yrotation Zrotation
											JOINT mixamorig:LeftHandThumb4
											{
												OFFSET 2.020889 -1.154053 1.115139
												CHANNELS 6 Xposition Yposition Zposition Xrotation Yrotation Zrotation
												End Site
												{
													OFFSET 190.885437 -115.081749 130.048782
												}
											}
										}
									}
								}
								JOINT mixamorig:LeftHandIndex1
								{
									OFFSET 9.109314 -0.518021 2.259871
									CHANNELS 6 Xposition Yposition Zposition Xrotation Yrotation Zrotation
									JOINT mixamorig:LeftHandIndex2
									{
										OFFSET 3.699989 0.000000 -0.000322
										CHANNELS 6 Xposition Yposition Zposition Xrotation Yrotation Zrotation
										JOINT mixamorig:LeftHandIndex3
										{
											OFFSET 2.850006 0.000000 0.000352
											CHANNELS 6 Xposition Yposition Zposition Xrotation Yrotation Zrotation
											JOINT mixamorig:LeftHandIndex4
											{
												OFFSET 2.774864 -0.000031 -0.000027
												CHANNELS 6 Xposition Yposition Zposition Xrotation Yrotation Zrotation
												End Site
												{
													OFFSET 277.486267 0.000000 -0.009857
												}
											}
										}
									}
								}
								JOINT mixamorig:LeftHandMiddle1
								{
									OFFSET 9.533394 0.000061 0.000044
									CHANNELS 6 Xposition Yposition Zposition Xrotation Yrotation Zrotation
									JOINT mixamorig:LeftHandMiddle2
									{
										OFFSET 3.699989 -0.000015 -0.000231
										CHANNELS 6 Xposition Yposition Zposition Xrotation Yrotation Zrotation
										JOINT mixamorig:LeftHandMiddle3
										{
											OFFSET 2.949997 -0.000015 -0.000059
											CHANNELS 6 Xposition Yposition Zposition Xrotation Yrotation Zrotation
											JOINT mixamorig:LeftHandMiddle4
											{
												OFFSET 2.952896 0.000031 0.000063
												CHANNELS 6 Xposition Yposition Zposition Xrotation Yrotation Zrotation
												End Site
												{
													OFFSET 295.289337 0.000000 0.022810
												}
											}
										}
									}
								}
								JOINT mixamorig:LeftHandRing1
								{
									OFFSET 9.104523 -0.042999 -1.865074
									CHANNELS 6 Xposition Yposition Zposition Xrotation Yrotation Zrotation
									JOINT mixamorig:LeftHandRing2
									{
										OFFSET 3.150009 -0.000031 0.000043
										CHANNELS 6 Xposition Yposition Zposition Xrotation Yrotation Zrotation
										JOINT mixamorig:LeftHandRing3
										{
											OFFSET 2.949982 -0.000015 0.000040
											CHANNELS 6 Xposition Yposition Zposition Xrotation Yrotation Zrotation
											JOINT mixamorig:LeftHandRing4
											{
												OFFSET 2.644348 0.000000 0.000057
												CHANNELS 6 Xposition Yposition Zposition Xrotation Yrotation Zrotation
												End Site
												{
													OFFSET 264.434631 0.000000 0.012105
												}
											}
										}
									}
								}
								JOINT mixamorig:LeftHandPinky1
								{
									OFFSET 8.077789 -0.486847 -3.806259
									CHANNELS 6 Xposition Yposition Zposition Xrotation Yrotation Zrotation
									JOINT mixamorig:LeftHandPinky2
									{
										OFFSET 3.599953 0.000031 0.014727
										CHANNELS 6 Xposition Yposition Zposition Xrotation Yrotation Zrotation
										JOINT mixamorig:LeftHandPinky3
										{
											OFFSET 2.100021 0.000015 0.007705
											CHANNELS 6 Xposition Yposition Zposition Xrotation Yrotation Zrotation
											JOINT mixamorig:LeftHandPinky4
											{
												OFFSET 2.125504 0.000031 0.007517
												CHANNELS 6 Xposition Yposition Zposition Xrotation Yrotation Zrotation
												End Site
												{
													OFFSET 212.550781 0.000000 0.625752
												}
											}
										}
									}
								}
							}
						}
					}
				}
			}
		}
	}
	JOINT mixamorig:RightUpLeg
	{
		OFFSET -8.207787 -6.751648 -1.599560
		CHANNELS 6 Xposition Yposition Zposition Xrotation Yrotation Zrotation
		JOINT mixamorig:RightLeg
		{
			OFFSET -0.000002 -44.370117 0.345942
			CHANNELS 6 Xposition Yposition Zposition Xrotation Yrotation Zrotation
			JOINT mixamorig:RightFoot
			{
				OFFSET 0.000003 -44.423679 -3.043532
				CHANNELS 6 Xposition Yposition Zposition Xrotation Yrotation Zrotation
				JOINT mixamorig:RightToeBase
				{
					OFFSET -0.000002 -8.728671 10.710558
					CHANNELS 6 Xposition Yposition Zposition Xrotation Yrotation Zrotation
					JOINT mixamorig:RightToe_End
					{
						OFFSET -0.000001 -0.000679 9.278119
						CHANNELS 6 Xposition Yposition Zposition Xrotation Yrotation Zrotation
						End Site
						{
							OFFSET 0.000000 -0.067690 927.812134
						}
					}
				}
			}
		}
	}
	JOINT mixamorig:LeftUpLeg
	{
		OFFSET 8.207793 -6.751686 -1.599556
		CHANNELS 6 Xposition Yposition Zposition Xrotation Yrotation Zrotation
		JOINT mixamorig:LeftLeg
		{
			OFFSET -0.000004 -44.370014 0.346954
			CHANNELS 6 Xposition Yposition Zposition Xrotation Yrotation Zrotation
			JOINT mixamorig:LeftFoot
			{
				OFFSET -0.000001 -44.423672 -3.044401
				CHANNELS 6 Xposition Yposition Zposition Xrotation Yrotation Zrotation
				JOINT mixamorig:LeftToeBase
				{
					OFFSET -0.000002 -8.728669 10.710558
					CHANNELS 6 Xposition Yposition Zposition Xrotation Yrotation Zrotation
					JOINT mixamorig:LeftToe_End
					{
						OFFSET -0.000003 -0.000679 9.278133
						CHANNELS 6 Xposition Yposition Zposition Xrotation Yrotation Zrotation
						End Site
						{
							OFFSET 0.000000 -0.068021 927.813477
						}
					}
				}
			}
		}
	}
}
MOTION
Frames: 3
Frame Time: 0.033333
0.000006 104.270477 1.554256 0.000010 0.000003 -0.000113 -0.000005 10.181587 0.131522 0.000001 -0.000003 0.000084 -0.000000 9.893967 -1.470711 0.000001 0.000000 -0.000000 -0.000000 9.220802 -1.370642 0.000000 -0.000000 -0.000000 0.000001 16.740433 -2.049030 0.000000 -0.000000 -0.000000 0.000000 9.617859 1.685014 0.000000 0.000000 0.000000 0.000002 22.037384 7.501101 0.000000 -0.000000 0.000000 -4.569968 11.014880 -2.160881 0.000008 0.000001 -0.000038 -10.592693 -0.524812 -2.231681 163.894870 86.227949 -162.814115 -27.841366 0.000062 0.000647 202.382644 55.459435 -221.249689 -28.328833 0.000019 0.000031 -0.000320 -0.000044 0.000006 -2.464457 -1.574066 2.682362 -6.633005 -141.423930 56.779707 -3.214802 -1.872961 1.924686 -156.102252 -49.543296 -97.259380 -2.654573 -1.528258 1.513021 -131.320687 -38.252314 -67.652669 -2.018822 -1.151994 1.108065 -0.000003 -0.000000 0.000003 -9.108259 -0.517834 2.260413 222.743739 24.076664 -302.799225 -3.699857 -0.000018 0.001818 169.793298 31.482329 -144.752800 -2.850059 0.000105 0.000005 153.835927 22.129451 -80.159769 -2.772164 0.000004 -0.000024 0.000001 0.000000 0.000000 -9.532486 0.000012 0.000554 223.642455 23.108094 -305.821474 -3.700115 0.000215 0.004108 116.287276 27.897780 -43.409889 -2.950059 0.000318 -0.001875 84.162581 9.134029 -8.244800 -2.946632 0.000015 -0.000155 -0.000002 -0.000001 0.000000 -9.103563 -0.043014 -1.864551 221.853314 26.011094 -297.752808 -3.379335 0.000320 -0.000746 104.629072 10.174737 -13.170784 -2.889650 0.000349 0.000477 72.584338 -6.754414 4.936677 -2.638795 -0.000015 0.000938 0.000000 0.000000 0.000001 -8.076669 -0.486690 -3.805720 223.706345 21.837303 -308.725534 -3.600027 0.000278 -0.003371 127.087691 3.986502 -7.324396 -2.099927 0.000362 -0.005565 85.736981 -8.326489 7.888442 -2.115783 -0.000056 -0.003680 0.000001 -0.000000 -0.000003 4.570446 11.014691 -2.160851 -0.000018 0.000010 -0.000021 10.592525 -0.524579 -2.232357 61.288524 -83.273086 55.549020 27.841764 -0.000088 -0.000103 37.338103 -107.105480 49.168073 28.328831 -0.000044 0.000022 0.000019 -0.000089 0.000000 2.466148 -1.576171 2.681885 10.838925 134.400938 -73.334723 3.217769 -1.872041 1.916525 37.065432 129.631950 -95.445528 2.656045 -1.528749 1.514603 -120.562524 35.690529 57.501095 2.020884 -1.154077 1.115139 0.000001 0.000001 -0.000001 9.109168 -0.517787 2.260108 -122.882685 -25.376963 -44.939506 3.700081 0.000092 -0.000416 90.252685 -33.090498 33.248268 2.850034 0.000120 0.000210 -117.042531 -167.641693 187.584438 2.774907 -0.000013 -0.000024 0.000001 -0.000002 0.000001 9.533255 0.000285 0.000289 59.910902 -154.229483 136.704652 3.700059 0.000166 -0.000350 86.827967 -16.014178 15.158939 2.950004 0.000124 -0.000222 62.877355 0.325993 -0.197794 2.952869 -0.000017 0.000066 -0.000001 0.000000 -0.000001 9.104408 -0.042768 -1.864842 60.532340 -157.864345 142.936503 3.150000 0.000264 -0.000137 95.103240 0.784849 -0.856410 2.949926 0.000175 -0.000173 68.709552 14.145433 -9.694695 2.644331 0.000031 0.000056 -0.000002 -0.000001 0.000001 8.077717 -0.486593 -3.806013 60.247432 -168.015509 158.909105 3.599896 0.000371 0.014559 118.691708 9.949594 -16.152241 2.099938 0.000212 0.007497 82.112514 16.794564 -14.416463 2.125501 0.000001 0.007494 0.000001 -0.000001 0.000001 -8.207786 -6.751667 -1.599560 -0.077001 -0.000003 0.000080 -0.000002 -44.370110 0.345938 0.153719 -0.000000 -0.000000 0.000000 -44.423679 -3.043532 -0.076700 0.000000 -0.000002 -0.000006 -8.728667 10.710559 -0.000009 -0.000000 -0.000000 -0.000001 -0.000679 9.278123 0.000000 -0.000000 -0.000000 8.207792 -6.751710 -1.599556 -0.074518 -0.000003 0.000081 -0.000002 -44.370014 0.346960 0.148822 0.000002 0.000000 -0.000001 -44.423664 -3.044403 -0.074314 0.000000 -0.000002 -0.000004 -8.728671 10.710558 0.000007 -0.000000 -0.000000 0.000000 -0.000680 9.278137 -0.000000 0.000000 -0.000001 
0.000006 104.270477 1.554256 0.000010 0.000003 -0.000113 -0.000005 10.181587 0.131522 0.000001 -0.000003 0.000084 -0.000000 9.893967 -1.470711 0.000001 0.000000 -0.000000 -0.000000 9.220802 -1.370642 0.000000 -0.000000 -0.000000 0.000001 16.740433 -2.049030 0.000000 -0.000000 -0.000000 0.000000 9.617859 1.685014 0.000000 0.000000 0.000000 0.000002 22.037384 7.501101 0.000000 -0.000000 0.000000 -4.569968 11.014880 -2.160881 0.000008 0.000001 -0.000038 -10.592694 -0.524814 -2.231680 160.627007 86.192746 -159.322946 -27.841379 0.000045 0.000638 201.672195 58.493153 -217.745024 -28.328838 0.000021 0.000028 -0.000320 -0.000043 0.000008 -2.464429 -1.574033 2.682338 -11.790564 -139.471206 48.061599 -3.214803 -1.872987 1.924677 -155.957439 -51.675446 -98.586643 -2.654597 -1.528271 1.513005 -129.361952 -39.981540 -67.147583 -2.018838 -1.151999 1.108073 -0.000000 -0.000003 0.000004 -9.108284 -0.517830 2.260418 222.570552 23.540303 -303.695072 -3.699849 -0.000019 0.001809 168.931492 30.821966 -141.178111 -2.850057 0.000094 0.000004 153.850940 21.613314 -78.830881 -2.772164 -0.000002 0.000005 -0.000000 -0.000000 0.000000 -9.532489 -0.000001 0.000546 223.901196 23.059139 -306.223800 -3.700120 0.000217 0.004100 113.674722 26.946304 -40.112554 -2.950050 0.000316 -0.001875 84.007304 8.682436 -7.815347 -2.946641 0.000012 -0.000157 0.000001 0.000001 0.000000 -9.103582 -0.043013 -1.864554 221.806760 26.179463 -297.351056 -3.379329 0.000329 -0.000764 102.705596 9.110222 -11.400965 -2.889645 0.000350 0.000479 71.986581 -7.351340 5.317700 -2.638815 -0.000001 0.000941 0.000000 0.000000 -0.000001 -8.076677 -0.486679 -3.805719 223.247014 22.134828 -307.570877 -3.600007 0.000292 -0.003366 124.943926 3.414047 -5.906406 -2.099926 0.000360 -0.005561 84.542907 -8.734155 8.095086 -2.115782 -0.000040 -0.003681 0.000001 0.000000 -0.000004 4.570446 11.014691 -2.160851 -0.000018 0.000010 -0.000021 10.592525 -0.524590 -2.232358 63.338236 -83.424607 57.608267 27.841764 -0.000060 -0.000109 38.735314 -105.792629 49.851703 28.328835 -0.000013 0.000026 0.000021 -0.000090 -0.000001 2.466136 -1.576155 2.681869 6.947650 136.614193 -70.393330 3.217759 -1.872048 1.916535 33.850585 129.046671 -91.940644 2.656055 -1.528775 1.514611 -116.992657 35.895202 55.035287 2.020880 -1.154081 1.115150 -0.000002 0.000004 0.000001 9.109181 -0.517763 2.260099 -123.734163 -25.937232 -46.597063 3.700086 0.000108 -0.000421 86.964175 -32.480814 30.904502 2.850019 0.000131 0.000228 -118.966090 -167.476676 187.400228 2.774895 -0.000030 -0.000028 0.000001 0.000000 -0.000000 9.533269 0.000312 0.000290 59.422564 -153.821898 135.668485 3.700067 0.000157 -0.000377 85.151962 -15.575290 14.321320 2.950031 0.000112 -0.000223 63.273793 0.533140 -0.326966 2.952873 -0.000015 0.000059 0.000000 -0.000000 0.000000 9.104409 -0.042749 -1.864836 59.815894 -156.980423 141.009815 3.149998 0.000254 -0.000116 92.809150 1.041018 -1.091769 2.949937 0.000163 -0.000179 68.980655 14.253354 -9.818519 2.644322 0.000029 0.000054 -0.000003 -0.000001 -0.000002 8.077720 -0.486571 -3.806017 58.706507 -166.660058 155.939940 3.599887 0.000358 0.014567 114.382740 9.478021 -14.128864 2.099927 0.000226 0.007475 81.554685 16.122298 -13.689028 2.125502 -0.000015 0.007512 0.000003 -0.000000 0.000000 -8.207786 -6.751667 -1.599560 -0.077001 -0.000003 0.000080 -0.000002 -44.370110 0.345938 0.153719 -0.000000 -0.000000 0.000000 -44.423679 -3.043532 -0.076700 0.000000 -0.000002 -0.000006 -8.728667 10.710559 -0.000009 -0.000000 -0.000000 -0.000001 -0.000679 9.278123 0.000000 -0.000000 -0.000000 8.207792 -6.751710 -1.599556 -0.074518 -0.000003 0.000081 -0.000002 -44.370014 0.346960 0.148822 0.000002 0.000000 -0.000001 -44.423664 -3.044403 -0.074314 0.000000 -0.000002 -0.000004 -8.728671 10.710558 0.000007 -0.000000 -0.000000 0.000000 -0.000680 9.278137 -0.000000 0.000000 -0.000001 
0.000006 104.270477 1.554256 0.000010 0.000003 -0.000113 -0.000005 10.181587 0.131522 0.000001 -0.000003 0.000084 -0.000000 9.893967 -1.470711 0.000001 0.000000 -0.000000 -0.000000 9.220802 -1.370642 0.000000 -0.000000 -0.000000 0.000001 16.740433 -2.049030 0.000000 -0.000000 -0.000000 0.000000 9.617859 1.685014 0.000000 0.000000 0.000000 0.000002 22.037384 7.501101 0.000000 -0.000000 0.000000 -4.569968 11.014880 -2.160881 0.000008 0.000001 -0.000038 -10.592695 -0.524817 -2.231683 157.800333 86.421400 -156.407726 -27.841379 0.000064 0.000647 201.880215 57.670060 -218.691852 -28.328842 0.000023 0.000027 -0.000321 -0.000043 0.000009 -2.464435 -1.574033 2.682344 -6.638413 -138.921799 54.937103 -3.214817 -1.872988 1.924659 -153.013996 -51.375976 -95.303228 -2.654586 -1.528259 1.512987 -129.044909 -39.576602 -66.632013 -2.018837 -1.152018 1.108052 -0.000000 -0.000000 0.000000 -9.108275 -0.517797 2.260407 222.841902 23.516954 -304.075405 -3.699866 -0.000015 0.001813 170.183357 30.469467 -144.908242 -2.850066 0.000087 0.000014 156.557266 20.992964 -83.524655 -2.772159 0.000004 -0.000022 -0.000001 -0.000001 -0.000002 -9.532488 0.000006 0.000547 224.156003 22.637270 -307.382200 -3.700148 0.000220 0.004118 116.731198 26.448962 -41.594664 -2.950034 0.000343 -0.001865 87.133044 8.802802 -8.368024 -2.946630 -0.000001 -0.000155 0.000003 -0.000000 0.000002 -9.103571 -0.042982 -1.864553 222.345539 25.676563 -299.074914 -3.379308 0.000323 -0.000758 103.199247 8.673641 -10.952547 -2.889652 0.000368 0.000486 72.860298 -7.377233 5.422462 -2.638809 -0.000016 0.000941 -0.000000 -0.000000 -0.000000 -8.076674 -0.486663 -3.805730 224.302839 21.484857 -310.131870 -3.600007 0.000298 -0.003369 125.120569 2.906484 -4.958856 -2.099922 0.000348 -0.005569 84.568199 -8.724075 8.089531 -2.115798 -0.000026 -0.003676 0.000001 -0.000000 -0.000003 4.570446 11.014691 -2.160851 -0.000018 0.000010 -0.000021 10.592526 -0.524586 -2.232356 66.454592 -83.522033 60.646151 27.841761 -0.000079 -0.000100 40.648880 -106.939930 53.131423 28.328831 -0.000029 0.000022 0.000021 -0.000089 0.000001 2.466139 -1.576196 2.681872 6.879333 134.652644 -68.861250 3.217788 -1.872045 1.916543 33.694696 128.228674 -91.238664 2.656048 -1.528774 1.514629 -118.737989 36.673266 56.729075 2.020891 -1.154068 1.115144 -0.000002 0.000007 0.000002 9.109180 -0.517808 2.260101 -123.657638 -26.271291 -47.083960 3.700059 0.000104 -0.000428 87.325423 -32.028099 30.655689 2.850054 0.000129 0.000225 -118.784680 -166.971802 187.728050 2.774890 -0.000029 -0.000034 0.000002 -0.000002 -0.000001 9.533268 0.000265 0.000283 59.096743 -153.464392 134.834559 3.700044 0.000170 -0.000366 85.951620 -16.004709 14.922153 2.950000 0.000124 -0.000222 63.603002 0.337221 -0.207583 2.952860 -0.000030 0.000063 0.000000 0.000001 -0.000001 9.104412 -0.042795 -1.864842 58.732093 -157.373993 140.854647 3.150017 0.000266 -0.000132 94.173952 0.813853 -0.873784 2.949922 0.000156 -0.000179 69.479546 14.297095 -9.940507 2.644345 0.000011 0.000053 -0.000001 -0.000000 0.000001 8.077713 -0.486600 -3.806025 57.552704 -167.851735 157.465790 3.599900 0.000349 0.014553 115.322116 10.134247 -15.420241 2.099925 0.000221 0.007501 81.002383 16.609376 -13.979524 2.125492 0.000003 0.007517 -0.000001 0.000002 0.000001 -8.207786 -6.751667 -1.599560 -0.077001 -0.000003 0.000080 -0.000002 -44.370110 0.345938 0.153719 -0.000000 -0.000000 0.000000 -44.423679 -3.043532 -0.076700 0.000000 -0.000002 -0.000006 -8.728667 10.710559 -0.000009 -0.000000 -0.000000 -0.000001 -0.000679 9.278123 0.000000 -0.000000 -0.000000 8.207792 -6.751710 -1.599556 -0.074518 -0.000003 0.000081 -0.000002 -44.370014 0.346960 0.148822 0.000002 0.000000 -0.000001 -44.423664 -3.044403 -0.074314 0.000000 -0.000002 -0.000004 -8.728671 10.710558 0.000007 -0.000000 -0.000000 0.000000 -0.000680 9.278137 -0.000000 0.000000 -0.000001 
